<?xml version="1.0" standalone="no"?>
<!DOCTYPE svg PUBLIC "-//W3C//DTD SVG 20010904//EN"
 "http://www.w3.org/TR/2001/REC-SVG-20010904/DTD/svg10.dtd">
<svg version="1.0" xmlns="http://www.w3.org/2000/svg"
 width="474.000000pt" height="474.000000pt" viewBox="0 0 474.000000 474.000000"
 preserveAspectRatio="xMidYMid meet">

<g transform="translate(0.000000,474.000000) scale(0.100000,-0.100000)"
fill="#000000" stroke="none">
<path d="M2430 4732 c0 -4 -33 -14 -72 -21 -103 -19 -270 -80 -371 -135 -242
-132 -449 -345 -570 -590 -118 -237 -147 -383 -147 -737 0 -228 1 -249 19
-270 19 -24 20 -24 245 -24 221 0 226 0 248 23 22 22 23 29 29 290 6 296 12
329 86 477 48 96 90 151 183 238 62 58 103 87 182 126 120 59 199 80 319 88
276 18 558 -119 716 -349 61 -88 96 -165 126 -273 20 -75 22 -101 22 -450 l0
-370 -1150 -5 -1150 -5 -60 -29 c-73 -36 -135 -99 -172 -174 l-28 -57 -3
-1215 c-2 -891 1 -1222 9 -1242 l11 -28 1723 0 1723 0 13 34 c12 28 13 240 9
1248 l-5 1213 -28 53 c-59 112 -169 189 -286 199 l-59 6 -5 391 c-6 431 -11
482 -72 663 -70 209 -169 369 -329 529 -145 145 -294 243 -476 314 -73 29
-228 70 -262 70 -16 0 -28 5 -28 10 0 6 -72 10 -195 10 -107 0 -195 -4 -195
-8z m123 -159 c-7 -2 -19 -2 -25 0 -7 3 -2 5 12 5 14 0 19 -2 13 -5z m165 0
c-15 -2 -42 -2 -60 0 -18 2 -6 4 27 4 33 0 48 -2 33 -4z m-243 -13 c-16 -4
-39 -8 -50 -8 l-20 -1 20 9 c11 5 34 8 50 8 l30 0 -30 -8z m355 0 c0 -5 -7 -7
-15 -4 -8 4 -15 8 -15 10 0 2 7 4 15 4 8 0 15 -4 15 -10z m37 -6 c-3 -3 -12
-4 -19 -1 -8 3 -5 6 6 6 11 1 17 -2 13 -5z m40 -10 c-3 -3 -12 -4 -19 -1 -8 3
-5 6 6 6 11 1 17 -2 13 -5z m-530 -20 c-3 -3 -12 -4 -19 -1 -8 3 -5 6 6 6 11
1 17 -2 13 -5z m-129 -18 c-7 -7 -19 -11 -27 -8 -11 4 -10 7 5 13 29 12 36 10
22 -5z m597 4 c3 -5 1 -10 -4 -10 -6 0 -11 5 -11 10 0 6 2 10 4 10 3 0 8 -4
11 -10z m179 1 c4 -5 -3 -7 -14 -4 -23 6 -26 13 -6 13 8 0 17 -4 20 -9z m31
-11 c3 -5 1 -10 -4 -10 -6 0 -11 5 -11 10 0 6 2 10 4 10 3 0 8 -4 11 -10z
m-880 -26 c-9 -7 -24 -10 -32 -7 -18 7 -2 19 27 19 19 0 20 -1 5 -12z m925 6
c13 -8 13 -10 -2 -10 -9 0 -20 5 -23 10 -8 13 5 13 25 0z m105 -51 c5 -5 -6
-4 -25 2 -45 15 -54 24 -15 15 17 -4 34 -12 40 -17z m-1068 5 c-3 -3 -12 -4
-19 -1 -8 3 -5 6 6 6 11 1 17 -2 13 -5z m-108 -35 c-16 -10 -23 -4 -14 10 3 6
11 8 17 5 6 -4 5 -9 -3 -15z m1219 -13 c-7 -8 -15 -12 -17 -11 -5 6 10 25 20
25 5 0 4 -6 -3 -14z m67 -22 c23 -20 25 -23 7 -14 -18 9 -27 8 -40 -2 -15 -12
-16 -11 -3 5 13 16 13 20 0 28 -8 5 -9 9 -4 8 6 0 24 -11 40 -25z m-1360 -4
c3 -5 1 -10 -4 -10 -6 0 -11 5 -11 10 0 6 2 10 4 10 3 0 8 -4 11 -10z m680 5
c-24 -8 -116 -12 -103 -4 7 5 36 8 63 8 28 0 46 -2 40 -4z m73 -2 c-10 -2 -28
-2 -40 0 -13 2 -5 4 17 4 22 1 32 -1 23 -4z m187 -41 c-3 -3 -11 0 -18 7 -9
10 -8 11 6 5 10 -3 15 -9 12 -12z m-995 0 c0 -4 -10 -13 -22 -21 -23 -14 -23
-14 -4 8 20 22 26 25 26 13z m460 1 c-8 -3 -24 -10 -35 -15 -20 -9 -20 -9 -1
6 11 9 27 16 35 15 14 0 14 -1 1 -6z m596 -9 c18 -14 18 -14 -6 -3 -31 14 -36
19 -24 19 6 0 19 -7 30 -16z m426 -18 c-3 -17 14 -23 20 -6 2 6 20 -6 41 -27
30 -31 33 -39 18 -39 -10 0 -17 5 -14 12 5 15 -22 36 -50 38 -12 1 -22 7 -22
16 0 8 -4 19 -10 23 -6 5 -4 7 5 4 8 -2 14 -11 12 -21z m-1542 -21 c-6 -8 -8
-20 -4 -26 5 -8 3 -9 -5 -5 -7 5 -22 0 -34 -10 -12 -10 -6 -2 12 19 34 36 56
52 31 22z m400 11 c0 -2 -7 -7 -16 -10 -8 -3 -12 -2 -9 4 6 10 25 14 25 6z
m-122 -47 c-12 -8 -4 -13 15 -10 5 1 6 -3 2 -9 -4 -6 -15 -4 -31 6 -28 19 -31
26 -7 17 11 -4 14 -3 9 5 -5 8 -2 10 9 5 13 -5 14 -7 3 -14z m1002 -4 c22 -14
40 -28 40 -30 0 -3 -17 5 -37 18 -21 13 -45 26 -53 30 -10 3 -10 6 -2 6 7 1
30 -10 52 -24z m77 13 c0 -7 -11 -13 -24 -13 -29 0 -29 3 0 15 12 5 22 9 23 9
0 1 1 -5 1 -11z m-1360 -47 c0 -11 -5 -18 -9 -15 -4 3 -5 11 -1 19 7 21 12 19
10 -4z m1358 9 c3 -6 -1 -7 -9 -4 -18 7 -21 14 -7 14 6 0 13 -4 16 -10z
m-1429 -22 c4 -7 4 -10 -1 -6 -4 4 -15 2 -24 -5 -14 -11 -14 -10 -2 6 16 20
18 21 27 5z m39 -6 c-3 -3 -11 0 -18 7 -9 10 -8 11 6 5 10 -3 15 -9 12 -12z
m1400 -10 c-3 -3 -11 0 -18 7 -9 10 -8 11 6 5 10 -3 15 -9 12 -12z m-1197 -37
c-56 -47 -79 -59 -51 -25 10 11 22 20 28 20 7 0 22 11 35 25 13 14 28 25 33
25 5 0 -15 -20 -45 -45z m1257 27 c-3 -3 -11 0 -18 7 -9 10 -8 11 6 5 10 -3
15 -9 12 -12z m-1562 -36 c-10 -14 -22 -26 -26 -26 -5 0 2 13 15 29 28 35 37
32 11 -3z m1568 -2 c9 -11 2 -9 -18 6 -18 13 -33 25 -33 27 0 8 38 -17 51 -33z
m-1629 -78 c-9 -19 -18 -30 -20 -26 -3 8 26 60 34 60 2 0 -4 -15 -14 -34z
m298 30 c0 -2 -8 -10 -17 -17 -16 -13 -17 -12 -4 4 13 16 21 21 21 13z m1695
-46 c15 -22 25 -43 21 -47 -3 -3 -6 -1 -6 6 0 7 -5 9 -12 5 -7 -5 -8 -3 -4 5
5 7 1 20 -6 29 -18 21 -31 42 -25 42 2 0 17 -18 32 -40z m-1735 10 c0 -5 -5
-10 -11 -10 -5 0 -7 5 -4 10 3 6 8 10 11 10 2 0 4 -4 4 -10z m-30 -50 c-12
-16 -24 -30 -27 -30 -3 0 0 7 7 15 6 8 8 20 4 26 -4 7 -3 9 4 5 6 -3 13 -2 17
4 3 5 8 10 11 10 3 0 -4 -13 -16 -30z m1528 5 c-3 -3 -9 2 -12 12 -6 14 -5 15
5 6 7 -7 10 -15 7 -18z m39 -2 c1 -19 -1 -22 -8 -12 -8 13 -13 5 -10 -14 1 -5
-3 -6 -9 -2 -6 4 -4 15 6 31 9 13 17 24 18 24 0 0 2 -12 3 -27z m-1835 -15
c-7 -7 -12 -8 -12 -2 0 14 12 26 19 19 2 -3 -1 -11 -7 -17z m2091 -55 c-3 -7
-7 -13 -10 -13 -3 0 -3 7 0 15 4 8 2 17 -3 20 -6 4 -10 11 -10 18 0 6 6 2 14
-8 8 -11 12 -25 9 -32z m-2113 0 c-11 -17 -11 -17 -6 0 3 10 6 24 7 30 0 9 2
9 5 0 3 -7 0 -20 -6 -30z m1896 -35 c9 -17 10 -28 4 -28 -5 0 -10 5 -10 11 0
6 -12 27 -27 47 -24 33 -25 35 -4 17 13 -11 29 -32 37 -47z m-1686 48 c0 -3
-4 -8 -10 -11 -5 -3 -10 -1 -10 4 0 6 5 11 10 11 6 0 10 -2 10 -4z m24 -21
c-19 -29 -20 -29 -30 -12 -4 6 -4 9 1 5 5 -5 14 1 22 12 20 29 26 25 7 -5z
m1908 -40 c9 -20 9 -20 -6 -1 -9 11 -16 14 -16 8 0 -7 -4 -12 -9 -12 -5 0 -4
11 2 25 7 13 14 19 16 12 2 -7 8 -21 13 -32z m-2167 15 c3 -5 1 -10 -4 -10 -6
0 -11 5 -11 10 0 6 2 10 4 10 3 0 8 -4 11 -10z m16 -23 c-10 -9 -11 -8 -5 6 3
10 9 15 12 12 3 -3 0 -11 -7 -18z m206 1 c-3 -8 -6 -5 -6 6 -1 11 2 17 5 13 3
-3 4 -12 1 -19z m1950 -40 c-3 -8 -6 -5 -6 6 -1 11 2 17 5 13 3 -3 4 -12 1
-19z m-1986 -39 c-5 -13 -10 -19 -10 -12 -1 15 10 45 15 40 3 -2 0 -15 -5 -28z
m2019 -4 c0 -5 -5 -3 -10 5 -8 12 -10 12 -10 1 0 -8 -2 -12 -5 -9 -3 3 -2 13
1 22 5 14 9 15 15 4 5 -7 9 -17 9 -23z m-63 3 c-3 -8 -6 -5 -6 6 -1 11 2 17 5
13 3 -3 4 -12 1 -19z m-154 -16 c4 9 6 9 6 1 2 -23 -18 -23 -29 -1 -10 21 -10
22 3 5 11 -14 16 -15 20 -5z m-2036 -24 c-3 -8 -6 -5 -6 6 -1 11 2 17 5 13 3
-3 4 -12 1 -19z m207 -4 c3 -8 2 -12 -4 -9 -6 3 -10 10 -10 16 0 14 7 11 14
-7z m1843 -26 c-3 -8 -6 -5 -6 6 -1 11 2 17 5 13 3 -3 4 -12 1 -19z m-2065
-24 c-8 -15 -9 -15 -15 0 -4 10 -3 15 3 11 6 -3 10 2 11 12 0 10 3 13 5 6 3
-7 1 -20 -4 -29z m2301 -24 c3 -11 1 -18 -4 -14 -5 3 -9 12 -9 20 0 20 7 17
13 -6z m-2326 -12 c-3 -8 -6 -5 -6 6 -1 11 2 17 5 13 3 -3 4 -12 1 -19z m2133
-34 c0 -8 -19 -13 -24 -6 -3 5 1 9 9 9 8 0 15 -2 15 -3z m180 -41 c-11 -17
-11 -17 -6 0 3 10 6 24 7 30 0 9 2 9 5 0 3 -7 0 -20 -6 -30z m27 -5 c-3 -7 -5
-2 -5 12 0 14 2 19 5 13 2 -7 2 -19 0 -25z m10 -65 c-3 -10 -5 -4 -5 12 0 17
2 24 5 18 2 -7 2 -21 0 -30z m-2170 -5 c-3 -8 -6 -5 -6 6 -1 11 2 17 5 13 3
-3 4 -12 1 -19z m-210 -20 c-3 -7 -5 -2 -5 12 0 14 2 19 5 13 2 -7 2 -19 0
-25z m2352 -43 c0 -5 -4 -3 -9 5 -5 8 -9 22 -9 30 0 16 17 -16 18 -35z m38
-47 c-2 -13 -4 -5 -4 17 -1 22 1 32 4 23 2 -10 2 -28 0 -40z m-2299 -273 c50
0 92 -4 92 -8 0 -4 -45 -7 -100 -6 l-100 1 2 157 2 156 6 -150 5 -150 93 0z
m99 263 c-3 -7 -5 -2 -5 12 0 14 2 19 5 13 2 -7 2 -19 0 -25z m20 0 c-3 -7 -5
-2 -5 12 0 14 2 19 5 13 2 -7 2 -19 0 -25z m-5 -270 c-7 -7 -12 -8 -12 -2 0
14 12 26 19 19 2 -3 -1 -11 -7 -17z m2182 -314 c9 -24 7 -46 -4 -39 -6 4 -8
11 -4 16 3 5 0 16 -6 24 -7 9 -8 15 -2 15 5 0 13 -7 16 -16z m-27 -36 c-3 -7
-5 -2 -5 12 0 14 2 19 5 13 2 -7 2 -19 0 -25z m-147 2 c0 -5 -4 -10 -10 -10
-5 0 -10 5 -10 10 0 6 5 10 10 10 6 0 10 -4 10 -10z m120 3 c0 -5 -22 -8 -50
-8 -27 0 -50 3 -50 8 0 4 23 7 50 7 28 0 50 -3 50 -7z m325 -192 c49 -23 99
-75 114 -120 8 -25 11 -350 11 -1172 l0 -1139 -800 0 -800 0 0 55 0 55 350 0
c382 0 413 4 425 53 4 14 5 150 3 304 -4 258 -6 283 -27 343 -68 192 -188 344
-349 439 -66 40 -194 90 -229 92 -10 0 7 11 36 25 175 79 287 243 298 434 8
141 -32 257 -124 360 -86 95 -201 156 -323 169 l-55 6 -3 58 -3 57 718 0 c678
0 720 -1 758 -19z m-2972 -66 c-3 -9 -8 -14 -10 -11 -3 3 -2 9 2 15 9 16 15
13 8 -4z m1424 -31 c-3 -3 -12 -4 -19 -1 -8 3 -5 6 6 6 11 1 17 -2 13 -5z
m-1483 -20 c3 -8 2 -12 -4 -9 -6 3 -10 10 -10 16 0 14 7 11 14 -7z m1713 -170
c126 -61 196 -174 197 -319 1 -72 -3 -88 -32 -147 -62 -126 -178 -200 -313
-199 -137 1 -250 71 -316 196 -39 74 -44 192 -12 277 38 104 145 195 252 218
72 15 161 5 224 -26z m-577 13 c0 -2 -10 -12 -21 -23 -22 -19 -22 -19 -8 4 12
19 29 30 29 19z m20 -17 c0 -5 -5 -10 -11 -10 -5 0 -7 5 -4 10 3 6 8 10 11 10
2 0 4 -4 4 -10z m-20 -29 c0 -5 -8 -15 -17 -22 -16 -12 -17 -12 -6 2 7 9 10
19 6 22 -3 4 -1 7 5 7 7 0 12 -4 12 -9z m-103 -193 c-3 -7 -5 -2 -5 12 0 14 2
19 5 13 2 -7 2 -19 0 -25z m248 -528 c-3 -5 -12 -10 -18 -10 -7 0 -6 4 3 10
19 12 23 12 15 0z m-111 -95 c-4 -8 -11 -15 -16 -15 -6 0 -5 6 2 15 7 8 14 15
16 15 2 0 1 -7 -2 -15z m-124 -89 c0 -2 -7 -9 -15 -16 -13 -11 -14 -10 -9 4 5
14 24 23 24 12z m710 -32 c182 -57 340 -215 402 -404 19 -56 22 -94 26 -283
l4 -217 -626 0 -626 0 0 148 c0 255 20 360 92 480 75 124 178 211 309 262 140
54 278 58 419 14z"/>
<path d="M590 3528 c-40 -44 -29 -66 98 -191 123 -123 143 -134 190 -101 16
11 22 25 22 52 0 33 -10 46 -113 149 -96 96 -118 113 -145 113 -19 0 -39 -8
-52 -22z"/>
<path d="M400 3090 c-28 -28 -27 -84 2 -104 18 -13 55 -16 196 -16 170 0 173
0 197 25 30 30 31 54 4 89 l-20 26 -180 0 c-166 0 -180 -1 -199 -20z"/>
<path d="M795 2851 c-16 -10 -74 -64 -127 -119 -106 -109 -118 -137 -78 -180
43 -46 81 -25 225 124 83 86 94 108 79 149 -5 12 -53 45 -66 45 -2 0 -16 -8
-33 -19z"/>
</g>
</svg>
